<?xml version="1.0"?>
<!-- Generated by SVGo -->
<svg width="242.602mm" height="90.202mm"
     viewBox="0.000 0.000 242.602 90.202"
     xmlns="http://www.w3.org/2000/svg" 
     xmlns:xlink="http://www.w3.org/1999/xlink">
<polygon points="235.602,5.001 235.758,5.007 235.914,5.025 236.068,5.056 236.220,5.098 236.367,5.153 236.509,5.218 236.646,5.295 236.777,5.382 236.900,5.480 237.016,5.586 237.122,5.702 237.220,5.825 237.307,5.956 237.384,6.093 237.449,6.235 237.504,6.382 237.546,6.534 237.577,6.688 237.595,6.844 237.602,7.001 237.602,83.202 237.595,83.358 237.577,83.514 237.546,83.668 237.504,83.820 237.449,83.967 237.384,84.109 237.307,84.246 237.220,84.377 237.122,84.500 237.016,84.616 236.900,84.722 236.777,84.820 236.646,84.907 236.509,84.984 236.367,85.049 236.220,85.104 236.068,85.146 235.914,85.177 235.758,85.195 235.602,85.201 7.001,85.202 6.844,85.195 6.688,85.177 6.534,85.146 6.382,85.104 6.235,85.049 6.093,84.984 5.956,84.907 5.825,84.820 5.702,84.722 5.586,84.616 5.480,84.500 5.382,84.377 5.295,84.246 5.218,84.109 5.153,83.967 5.098,83.820 5.056,83.668 5.025,83.514 5.007,83.358 5.000,83.202 5.001,7.001 5.007,6.844 5.025,6.688 5.056,6.534 5.098,6.382 5.153,6.235 5.218,6.093 5.295,5.956 5.382,5.825 5.480,5.702 5.586,5.586 5.702,5.480 5.825,5.382 5.956,5.295 6.093,5.218 6.235,5.153 6.382,5.098 6.534,5.056 6.688,5.025 6.844,5.007 7.001,5.000" style="fill:none;stroke-width:0.050000mm;stroke:black"/>
<polygon points="130.968,66.676 130.968,71.376 129.444,71.376 129.444,68.146 127.719,68.146 127.719,67.226 124.419,67.226 124.419,68.146 122.694,68.146 122.694,71.376 121.869,71.376 121.869,74.176 122.694,74.176 122.694,80.446 124.419,80.446 124.419,81.426 127.719,81.426 127.719,80.446 129.444,80.446 129.444,75.976 130.968,75.976 130.968,80.676 144.969,80.676 144.969,75.976 146.494,75.976 146.494,80.446 148.219,80.446 148.219,81.426 151.519,81.426 151.519,80.446 153.244,80.446 153.244,74.176 154.069,74.176 154.069,71.376 153.244,71.376 153.244,68.146 151.519,68.146 151.519,67.226 148.219,67.226 148.219,68.146 146.494,68.146 146.494,71.376 144.969,71.376 144.969,66.676" style="fill:none;stroke-width:0.050000mm;stroke:black"/>
<polygon points="83.344,66.676 83.344,71.376 81.819,71.376 81.819,68.146 80.094,68.146 80.094,67.226 76.794,67.226 76.794,68.146 75.069,68.146 75.069,71.376 74.244,71.376 74.244,74.176 75.069,74.176 75.069,80.446 76.794,80.446 76.794,81.426 80.094,81.426 80.094,80.446 81.819,80.446 81.819,75.976 83.344,75.976 83.344,80.676 97.344,80.676 97.344,75.976 98.869,75.976 98.869,80.446 100.594,80.446 100.594,81.426 103.894,81.426 103.894,80.446 105.619,80.446 105.619,74.176 106.444,74.176 106.444,71.376 105.619,71.376 105.619,68.146 103.894,68.146 103.894,67.226 100.594,67.226 100.594,68.146 98.869,68.146 98.869,71.376 97.344,71.376 97.344,66.676" style="fill:none;stroke-width:0.050000mm;stroke:black"/>
<polygon points="219.076,66.676 219.076,80.676 233.076,80.676 233.076,66.676" style="fill:none;stroke-width:0.050000mm;stroke:black"/>
<polygon points="200.026,66.676 200.026,80.676 214.026,80.676 214.026,66.676" style="fill:none;stroke-width:0.050000mm;stroke:black"/>
<polygon points="180.976,66.676 180.976,80.676 194.976,80.676 194.976,66.676" style="fill:none;stroke-width:0.050000mm;stroke:black"/>
<polygon points="161.926,66.676 161.926,80.676 175.926,80.676 175.926,66.676" style="fill:none;stroke-width:0.050000mm;stroke:black"/>
<polygon points="47.626,66.676 47.626,80.676 61.626,80.676 61.626,66.676" style="fill:none;stroke-width:0.050000mm;stroke:black"/>
<polygon points="28.576,66.676 28.576,80.676 42.576,80.676 42.576,66.676" style="fill:none;stroke-width:0.050000mm;stroke:black"/>
<polygon points="9.525,66.676 9.525,80.676 23.526,80.676 23.526,66.676" style="fill:none;stroke-width:0.050000mm;stroke:black"/>
<polygon points="19.051,47.626 19.051,52.326 17.526,52.326 17.526,49.096 15.801,49.096 15.801,48.176 12.501,48.176 12.501,49.096 10.776,49.096 10.776,52.326 9.951,52.326 9.951,55.126 10.776,55.126 10.776,61.395 12.501,61.395 12.501,62.376 15.801,62.376 15.801,61.395 17.526,61.395 17.526,56.926 19.051,56.926 19.051,61.626 33.051,61.626 33.051,56.926 34.576,56.926 34.576,61.395 36.301,61.395 36.301,62.376 39.601,62.376 39.601,61.395 41.326,61.395 41.326,55.126 42.151,55.126 42.151,52.326 41.326,52.326 41.326,49.096 39.601,49.096 39.601,48.176 36.301,48.176 36.301,49.096 34.576,49.096 34.576,52.326 33.051,52.326 33.051,47.626" style="fill:none;stroke-width:0.050000mm;stroke:black"/>
<polygon points="219.076,47.626 219.076,61.626 233.076,61.626 233.076,47.626" style="fill:none;stroke-width:0.050000mm;stroke:black"/>
<polygon points="200.026,47.626 200.026,61.626 214.026,61.626 214.026,47.626" style="fill:none;stroke-width:0.050000mm;stroke:black"/>
<polygon points="180.976,47.626 180.976,61.626 194.976,61.626 194.976,47.626" style="fill:none;stroke-width:0.050000mm;stroke:black"/>
<polygon points="161.926,47.626 161.926,61.626 175.926,61.626 175.926,47.626" style="fill:none;stroke-width:0.050000mm;stroke:black"/>
<polygon points="142.876,47.626 142.876,61.626 156.876,61.626 156.876,47.626" style="fill:none;stroke-width:0.050000mm;stroke:black"/>
<polygon points="123.825,47.626 123.825,61.626 137.826,61.626 137.826,47.626" style="fill:none;stroke-width:0.050000mm;stroke:black"/>
<polygon points="104.775,47.626 104.775,61.626 118.775,61.626 118.775,47.626" style="fill:none;stroke-width:0.050000mm;stroke:black"/>
<polygon points="85.726,47.626 85.726,61.626 99.726,61.626 99.726,47.626" style="fill:none;stroke-width:0.050000mm;stroke:black"/>
<polygon points="66.676,47.626 66.676,61.626 80.676,61.626 80.676,47.626" style="fill:none;stroke-width:0.050000mm;stroke:black"/>
<polygon points="47.626,47.626 47.626,61.626 61.626,61.626 61.626,47.626" style="fill:none;stroke-width:0.050000mm;stroke:black"/>
<polygon points="211.932,28.576 211.932,42.576 225.932,42.576 225.932,28.576" style="fill:none;stroke-width:0.050000mm;stroke:black"/>
<polygon points="185.738,28.576 185.738,42.576 199.738,42.576 199.738,28.576" style="fill:none;stroke-width:0.050000mm;stroke:black"/>
<polygon points="166.688,28.576 166.688,42.576 180.688,42.576 180.688,28.576" style="fill:none;stroke-width:0.050000mm;stroke:black"/>
<polygon points="147.638,28.576 147.638,42.576 161.638,42.576 161.638,28.576" style="fill:none;stroke-width:0.050000mm;stroke:black"/>
<polygon points="128.587,28.576 128.587,42.576 142.588,42.576 142.588,28.576" style="fill:none;stroke-width:0.050000mm;stroke:black"/>
<polygon points="109.538,28.576 109.538,42.576 123.538,42.576 123.538,28.576" style="fill:none;stroke-width:0.050000mm;stroke:black"/>
<polygon points="90.488,28.576 90.488,42.576 104.488,42.576 104.488,28.576" style="fill:none;stroke-width:0.050000mm;stroke:black"/>
<polygon points="71.438,28.576 71.438,42.576 85.438,42.576 85.438,28.576" style="fill:none;stroke-width:0.050000mm;stroke:black"/>
<polygon points="52.388,28.576 52.388,42.576 66.388,42.576 66.388,28.576" style="fill:none;stroke-width:0.050000mm;stroke:black"/>
<polygon points="33.338,28.576 33.338,42.576 47.338,42.576 47.338,28.576" style="fill:none;stroke-width:0.050000mm;stroke:black"/>
<polygon points="11.907,28.576 11.907,42.576 25.907,42.576 25.907,28.576" style="fill:none;stroke-width:0.050000mm;stroke:black"/>
<polygon points="219.076,9.525 219.076,23.526 233.076,23.526 233.076,9.525" style="fill:none;stroke-width:0.050000mm;stroke:black"/>
<polygon points="200.026,9.525 200.026,23.526 214.026,23.526 214.026,9.525" style="fill:none;stroke-width:0.050000mm;stroke:black"/>
<polygon points="180.976,9.525 180.976,23.526 194.976,23.526 194.976,9.525" style="fill:none;stroke-width:0.050000mm;stroke:black"/>
<polygon points="161.926,9.525 161.926,23.526 175.926,23.526 175.926,9.525" style="fill:none;stroke-width:0.050000mm;stroke:black"/>
<polygon points="142.876,9.525 142.876,23.526 156.876,23.526 156.876,9.525" style="fill:none;stroke-width:0.050000mm;stroke:black"/>
<polygon points="123.825,9.525 123.825,23.526 137.826,23.526 137.826,9.525" style="fill:none;stroke-width:0.050000mm;stroke:black"/>
<polygon points="104.775,9.525 104.775,23.526 118.775,23.526 118.775,9.525" style="fill:none;stroke-width:0.050000mm;stroke:black"/>
<polygon points="85.726,9.525 85.726,23.526 99.726,23.526 99.726,9.525" style="fill:none;stroke-width:0.050000mm;stroke:black"/>
<polygon points="66.676,9.525 66.676,23.526 80.676,23.526 80.676,9.525" style="fill:none;stroke-width:0.050000mm;stroke:black"/>
<polygon points="47.626,9.525 47.626,23.526 61.626,23.526 61.626,9.525" style="fill:none;stroke-width:0.050000mm;stroke:black"/>
<polygon points="28.576,9.525 28.576,23.526 42.576,23.526 42.576,9.525" style="fill:none;stroke-width:0.050000mm;stroke:black"/>
<polygon points="9.525,9.525 9.525,23.526 23.526,23.526 23.526,9.525" style="fill:none;stroke-width:0.050000mm;stroke:black"/>
</svg>
