  0
SECTION
  2
HEADER
  9
$ACADVER
  1
AC1009
  9
$EXTMIN
 10
0.0
 20
0.0
 30
0.0
  9
$EXTMAX
 10
1000.0
 20
1000.0
 30
0.0
  9
$FILLMODE
 70
 0
  9
$SPLFRAME
 70
 1
  0
ENDSEC
  0
SECTION
  2
TABLES
  0
TABLE
  2
LAYER
 70
1
  0
LAYER
  2
0
 70
     0
 62
     7
  6
CONTINUOUS
  0
ENDTAB
  0
ENDSEC
  0
SECTION
  2
ENTITIES
  0
LINE
  8
0
 62
     0
 10
230.696
 20
80.3381
 30
0.0
 11
230.853
 21
80.3314
 31
0.0
  0
LINE
  8
0
 62
     0
 10
230.853
 20
80.3314
 30
0.0
 11
231.009
 21
80.3134
 31
0.0
  0
LINE
  8
0
 62
     0
 10
231.009
 20
80.3134
 30
0.0
 11
231.163
 21
80.2831
 31
0.0
  0
LINE
  8
0
 62
     0
 10
231.163
 20
80.2831
 30
0.0
 11
231.315
 21
80.2404
 31
0.0
  0
LINE
  8
0
 62
     0
 10
231.315
 20
80.2404
 30
0.0
 11
231.461
 21
80.1853
 31
0.0
  0
LINE
  8
0
 62
     0
 10
231.461
 20
80.1853
 30
0.0
 11
231.604
 21
80.1204
 31
0.0
  0
LINE
  8
0
 62
     0
 10
231.604
 20
80.1204
 30
0.0
 11
231.74
 21
80.0435
 31
0.0
  0
LINE
  8
0
 62
     0
 10
231.74
 20
80.0435
 30
0.0
 11
231.871
 21
79.9564
 31
0.0
  0
LINE
  8
0
 62
     0
 10
231.871
 20
79.9564
 30
0.0
 11
231.994
 21
79.8587
 31
0.0
  0
LINE
  8
0
 62
     0
 10
231.994
 20
79.8587
 30
0.0
 11
232.11
 21
79.7525
 31
0.0
  0
LINE
  8
0
 62
     0
 10
232.11
 20
79.7525
 30
0.0
 11
232.216
 21
79.6368
 31
0.0
  0
LINE
  8
0
 62
     0
 10
232.216
 20
79.6368
 30
0.0
 11
232.314
 21
79.5143
 31
0.0
  0
LINE
  8
0
 62
     0
 10
232.314
 20
79.5143
 30
0.0
 11
232.402
 21
79.3831
 31
0.0
  0
LINE
  8
0
 62
     0
 10
232.402
 20
79.3831
 30
0.0
 11
232.479
 21
79.2455
 31
0.0
  0
LINE
  8
0
 62
     0
 10
232.479
 20
79.2455
 30
0.0
 11
232.544
 21
79.1034
 31
0.0
  0
LINE
  8
0
 62
     0
 10
232.544
 20
79.1034
 30
0.0
 11
232.599
 21
78.9573
 31
0.0
  0
LINE
  8
0
 62
     0
 10
232.599
 20
78.9573
 30
0.0
 11
232.64
 21
78.8046
 31
0.0
  0
LINE
  8
0
 62
     0
 10
232.64
 20
78.8046
 30
0.0
 11
232.672
 21
78.6515
 31
0.0
  0
LINE
  8
0
 62
     0
 10
232.672
 20
78.6515
 30
0.0
 11
232.69
 21
78.4945
 31
0.0
  0
LINE
  8
0
 62
     0
 10
232.69
 20
78.4945
 30
0.0
 11
232.697
 21
78.3375
 31
0.0
  0
LINE
  8
0
 62
     0
 10
232.697
 20
78.3375
 30
0.0
 11
232.697
 21
2.13734
 31
0.0
  0
LINE
  8
0
 62
     0
 10
232.697
 20
2.13734
 30
0.0
 11
232.69
 21
1.98024
 31
0.0
  0
LINE
  8
0
 62
     0
 10
232.69
 20
1.98024
 30
0.0
 11
232.672
 21
1.82452
 31
0.0
  0
LINE
  8
0
 62
     0
 10
232.672
 20
1.82452
 30
0.0
 11
232.64
 21
1.67018
 31
0.0
  0
LINE
  8
0
 62
     0
 10
232.64
 20
1.67018
 30
0.0
 11
232.599
 21
1.5186
 31
0.0
  0
LINE
  8
0
 62
     0
 10
232.599
 20
1.5186
 30
0.0
 11
232.544
 21
1.37253
 31
0.0
  0
LINE
  8
0
 62
     0
 10
232.544
 20
1.37253
 30
0.0
 11
232.479
 21
1.22921
 31
0.0
  0
LINE
  8
0
 62
     0
 10
232.479
 20
1.22921
 30
0.0
 11
232.402
 21
1.09279
 31
0.0
  0
LINE
  8
0
 62
     0
 10
232.402
 20
1.09279
 30
0.0
 11
232.314
 21
0.96187
 31
0.0
  0
LINE
  8
0
 62
     0
 10
232.314
 20
0.96187
 30
0.0
 11
232.216
 21
0.839227
 31
0.0
  0
LINE
  8
0
 62
     0
 10
232.216
 20
0.839227
 30
0.0
 11
232.11
 21
0.72347
 31
0.0
  0
LINE
  8
0
 62
     0
 10
232.11
 20
0.72347
 30
0.0
 11
231.994
 21
0.617361
 31
0.0
  0
LINE
  8
0
 62
     0
 10
231.994
 20
0.617361
 30
0.0
 11
231.871
 21
0.519522
 31
0.0
  0
LINE
  8
0
 62
     0
 10
231.871
 20
0.519522
 30
0.0
 11
231.74
 21
0.431327
 31
0.0
  0
LINE
  8
0
 62
     0
 10
231.74
 20
0.431327
 30
0.0
 11
231.604
 21
0.354157
 31
0.0
  0
LINE
  8
0
 62
     0
 10
231.604
 20
0.354157
 30
0.0
 11
231.461
 21
0.289388
 31
0.0
  0
LINE
  8
0
 62
     0
 10
231.461
 20
0.289388
 30
0.0
 11
231.315
 21
0.234267
 31
0.0
  0
LINE
  8
0
 62
     0
 10
231.315
 20
0.234267
 30
0.0
 11
231.163
 21
0.192925
 31
0.0
  0
LINE
  8
0
 62
     0
 10
231.163
 20
0.192925
 30
0.0
 11
231.009
 21
0.16123
 31
0.0
  0
LINE
  8
0
 62
     0
 10
231.009
 20
0.16123
 30
0.0
 11
230.853
 21
0.143316
 31
0.0
  0
LINE
  8
0
 62
     0
 10
230.853
 20
0.143316
 30
0.0
 11
230.696
 21
0.137804
 31
0.0
  0
LINE
  8
0
 62
     0
 10
230.696
 20
0.137804
 30
0.0
 11
2.096
 21
0.136426
 31
0.0
  0
LINE
  8
0
 62
     0
 10
2.096
 20
0.136426
 30
0.0
 11
1.9389
 21
0.143316
 31
0.0
  0
LINE
  8
0
 62
     0
 10
1.9389
 20
0.143316
 30
0.0
 11
1.7818
 21
0.16123
 31
0.0
  0
LINE
  8
0
 62
     0
 10
1.7818
 20
0.16123
 30
0.0
 11
1.62884
 21
0.192925
 31
0.0
  0
LINE
  8
0
 62
     0
 10
1.62884
 20
0.192925
 30
0.0
 11
1.47588
 21
0.234267
 31
0.0
  0
LINE
  8
0
 62
     0
 10
1.47588
 20
0.234267
 30
0.0
 11
1.32981
 21
0.289388
 31
0.0
  0
LINE
  8
0
 62
     0
 10
1.32981
 20
0.289388
 30
0.0
 11
1.18787
 21
0.354157
 31
0.0
  0
LINE
  8
0
 62
     0
 10
1.18787
 20
0.354157
 30
0.0
 11
1.05006
 21
0.431327
 31
0.0
  0
LINE
  8
0
 62
     0
 10
1.05006
 20
0.431327
 30
0.0
 11
0.919152
 21
0.519522
 31
0.0
  0
LINE
  8
0
 62
     0
 10
0.919152
 20
0.519522
 30
0.0
 11
0.796505
 21
0.617361
 31
0.0
  0
LINE
  8
0
 62
     0
 10
0.796505
 20
0.617361
 30
0.0
 11
0.680752
 21
0.72347
 31
0.0
  0
LINE
  8
0
 62
     0
 10
0.680752
 20
0.72347
 30
0.0
 11
0.574643
 21
0.839227
 31
0.0
  0
LINE
  8
0
 62
     0
 10
0.574643
 20
0.839227
 30
0.0
 11
0.4768
 21
0.96187
 31
0.0
  0
LINE
  8
0
 62
     0
 10
0.4768
 20
0.96187
 30
0.0
 11
0.389985
 21
1.09279
 31
0.0
  0
LINE
  8
0
 62
     0
 10
0.389985
 20
1.09279
 30
0.0
 11
0.312815
 21
1.22921
 31
0.0
  0
LINE
  8
0
 62
     0
 10
0.312815
 20
1.22921
 30
0.0
 11
0.248047
 21
1.37253
 31
0.0
  0
LINE
  8
0
 62
     0
 10
0.248047
 20
1.37253
 30
0.0
 11
0.192925
 21
1.5186
 31
0.0
  0
LINE
  8
0
 62
     0
 10
0.192925
 20
1.5186
 30
0.0
 11
0.150206
 21
1.67018
 31
0.0
  0
LINE
  8
0
 62
     0
 10
0.150206
 20
1.67018
 30
0.0
 11
0.119889
 21
1.82452
 31
0.0
  0
LINE
  8
0
 62
     0
 10
0.119889
 20
1.82452
 30
0.0
 11
0.101975
 21
1.98024
 31
0.0
  0
LINE
  8
0
 62
     0
 10
0.101975
 20
1.98024
 30
0.0
 11
0.0950846
 21
2.13734
 31
0.0
  0
LINE
  8
0
 62
     0
 10
0.0950846
 20
2.13734
 30
0.0
 11
0.0950846
 21
78.3375
 31
0.0
  0
LINE
  8
0
 62
     0
 10
0.0950846
 20
78.3375
 30
0.0
 11
0.101975
 21
78.4945
 31
0.0
  0
LINE
  8
0
 62
     0
 10
0.101975
 20
78.4945
 30
0.0
 11
0.119889
 21
78.6515
 31
0.0
  0
LINE
  8
0
 62
     0
 10
0.119889
 20
78.6515
 30
0.0
 11
0.150206
 21
78.8046
 31
0.0
  0
LINE
  8
0
 62
     0
 10
0.150206
 20
78.8046
 30
0.0
 11
0.192925
 21
78.9573
 31
0.0
  0
LINE
  8
0
 62
     0
 10
0.192925
 20
78.9573
 30
0.0
 11
0.248047
 21
79.1034
 31
0.0
  0
LINE
  8
0
 62
     0
 10
0.248047
 20
79.1034
 30
0.0
 11
0.312815
 21
79.2455
 31
0.0
  0
LINE
  8
0
 62
     0
 10
0.312815
 20
79.2455
 30
0.0
 11
0.389985
 21
79.3831
 31
0.0
  0
LINE
  8
0
 62
     0
 10
0.389985
 20
79.3831
 30
0.0
 11
0.4768
 21
79.5143
 31
0.0
  0
LINE
  8
0
 62
     0
 10
0.4768
 20
79.5143
 30
0.0
 11
0.574643
 21
79.6368
 31
0.0
  0
LINE
  8
0
 62
     0
 10
0.574643
 20
79.6368
 30
0.0
 11
0.680752
 21
79.7525
 31
0.0
  0
LINE
  8
0
 62
     0
 10
0.680752
 20
79.7525
 30
0.0
 11
0.796505
 21
79.8587
 31
0.0
  0
LINE
  8
0
 62
     0
 10
0.796505
 20
79.8587
 30
0.0
 11
0.919152
 21
79.9564
 31
0.0
  0
LINE
  8
0
 62
     0
 10
0.919152
 20
79.9564
 30
0.0
 11
1.05006
 21
80.0435
 31
0.0
  0
LINE
  8
0
 62
     0
 10
1.05006
 20
80.0435
 30
0.0
 11
1.18787
 21
80.1204
 31
0.0
  0
LINE
  8
0
 62
     0
 10
1.18787
 20
80.1204
 30
0.0
 11
1.32981
 21
80.1853
 31
0.0
  0
LINE
  8
0
 62
     0
 10
1.32981
 20
80.1853
 30
0.0
 11
1.47588
 21
80.2404
 31
0.0
  0
LINE
  8
0
 62
     0
 10
1.47588
 20
80.2404
 30
0.0
 11
1.62884
 21
80.2831
 31
0.0
  0
LINE
  8
0
 62
     0
 10
1.62884
 20
80.2831
 30
0.0
 11
1.7818
 21
80.3134
 31
0.0
  0
LINE
  8
0
 62
     0
 10
1.7818
 20
80.3134
 30
0.0
 11
1.9389
 21
80.3314
 31
0.0
  0
LINE
  8
0
 62
     0
 10
1.9389
 20
80.3314
 30
0.0
 11
2.096
 21
80.3381
 31
0.0
  0
LINE
  8
0
 62
     0
 10
2.096
 20
80.3381
 30
0.0
 11
230.696
 21
80.3381
 31
0.0
  0
LINE
  8
0
 62
     0
 10
126.063
 20
18.6628
 30
0.0
 11
126.063
 21
13.9623
 31
0.0
  0
LINE
  8
0
 62
     0
 10
126.063
 20
13.9623
 30
0.0
 11
124.539
 21
13.9623
 31
0.0
  0
LINE
  8
0
 62
     0
 10
124.539
 20
13.9623
 30
0.0
 11
124.539
 21
17.1924
 31
0.0
  0
LINE
  8
0
 62
     0
 10
124.539
 20
17.1924
 30
0.0
 11
122.814
 21
17.1924
 31
0.0
  0
LINE
  8
0
 62
     0
 10
122.814
 20
17.1924
 30
0.0
 11
122.814
 21
18.113
 31
0.0
  0
LINE
  8
0
 62
     0
 10
122.814
 20
18.113
 30
0.0
 11
119.513
 21
18.113
 31
0.0
  0
LINE
  8
0
 62
     0
 10
119.513
 20
18.113
 30
0.0
 11
119.513
 21
17.1924
 31
0.0
  0
LINE
  8
0
 62
     0
 10
119.513
 20
17.1924
 30
0.0
 11
117.788
 21
17.1924
 31
0.0
  0
LINE
  8
0
 62
     0
 10
117.788
 20
17.1924
 30
0.0
 11
117.788
 21
13.9623
 31
0.0
  0
LINE
  8
0
 62
     0
 10
117.788
 20
13.9623
 30
0.0
 11
116.964
 21
13.9623
 31
0.0
  0
LINE
  8
0
 62
     0
 10
116.964
 20
13.9623
 30
0.0
 11
116.964
 21
11.1635
 31
0.0
  0
LINE
  8
0
 62
     0
 10
116.964
 20
11.1635
 30
0.0
 11
117.788
 21
11.1635
 31
0.0
  0
LINE
  8
0
 62
     0
 10
117.788
 20
11.1635
 30
0.0
 11
117.788
 21
4.89342
 31
0.0
  0
LINE
  8
0
 62
     0
 10
117.788
 20
4.89342
 30
0.0
 11
119.513
 21
4.89342
 31
0.0
  0
LINE
  8
0
 62
     0
 10
119.513
 20
4.89342
 30
0.0
 11
119.513
 21
3.91223
 31
0.0
  0
LINE
  8
0
 62
     0
 10
119.513
 20
3.91223
 30
0.0
 11
122.814
 21
3.91223
 31
0.0
  0
LINE
  8
0
 62
     0
 10
122.814
 20
3.91223
 30
0.0
 11
122.814
 21
4.89342
 31
0.0
  0
LINE
  8
0
 62
     0
 10
122.814
 20
4.89342
 30
0.0
 11
124.539
 21
4.89342
 31
0.0
  0
LINE
  8
0
 62
     0
 10
124.539
 20
4.89342
 30
0.0
 11
124.539
 21
9.3624
 31
0.0
  0
LINE
  8
0
 62
     0
 10
124.539
 20
9.3624
 30
0.0
 11
126.063
 21
9.3624
 31
0.0
  0
LINE
  8
0
 62
     0
 10
126.063
 20
9.3624
 30
0.0
 11
126.063
 21
4.6633
 31
0.0
  0
LINE
  8
0
 62
     0
 10
126.063
 20
4.6633
 30
0.0
 11
140.064
 21
4.6633
 31
0.0
  0
LINE
  8
0
 62
     0
 10
140.064
 20
4.6633
 30
0.0
 11
140.064
 21
9.3624
 31
0.0
  0
LINE
  8
0
 62
     0
 10
140.064
 20
9.3624
 30
0.0
 11
141.588
 21
9.3624
 31
0.0
  0
LINE
  8
0
 62
     0
 10
141.588
 20
9.3624
 30
0.0
 11
141.588
 21
4.89342
 31
0.0
  0
LINE
  8
0
 62
     0
 10
141.588
 20
4.89342
 30
0.0
 11
143.313
 21
4.89342
 31
0.0
  0
LINE
  8
0
 62
     0
 10
143.313
 20
4.89342
 30
0.0
 11
143.313
 21
3.91223
 31
0.0
  0
LINE
  8
0
 62
     0
 10
143.313
 20
3.91223
 30
0.0
 11
146.614
 21
3.91223
 31
0.0
  0
LINE
  8
0
 62
     0
 10
146.614
 20
3.91223
 30
0.0
 11
146.614
 21
4.89342
 31
0.0
  0
LINE
  8
0
 62
     0
 10
146.614
 20
4.89342
 30
0.0
 11
148.339
 21
4.89342
 31
0.0
  0
LINE
  8
0
 62
     0
 10
148.339
 20
4.89342
 30
0.0
 11
148.339
 21
11.1635
 31
0.0
  0
LINE
  8
0
 62
     0
 10
148.339
 20
11.1635
 30
0.0
 11
149.163
 21
11.1635
 31
0.0
  0
LINE
  8
0
 62
     0
 10
149.163
 20
11.1635
 30
0.0
 11
149.163
 21
13.9623
 31
0.0
  0
LINE
  8
0
 62
     0
 10
149.163
 20
13.9623
 30
0.0
 11
148.339
 21
13.9623
 31
0.0
  0
LINE
  8
0
 62
     0
 10
148.339
 20
13.9623
 30
0.0
 11
148.339
 21
17.1924
 31
0.0
  0
LINE
  8
0
 62
     0
 10
148.339
 20
17.1924
 30
0.0
 11
146.614
 21
17.1924
 31
0.0
  0
LINE
  8
0
 62
     0
 10
146.614
 20
17.1924
 30
0.0
 11
146.614
 21
18.113
 31
0.0
  0
LINE
  8
0
 62
     0
 10
146.614
 20
18.113
 30
0.0
 11
143.313
 21
18.113
 31
0.0
  0
LINE
  8
0
 62
     0
 10
143.313
 20
18.113
 30
0.0
 11
143.313
 21
17.1924
 31
0.0
  0
LINE
  8
0
 62
     0
 10
143.313
 20
17.1924
 30
0.0
 11
141.588
 21
17.1924
 31
0.0
  0
LINE
  8
0
 62
     0
 10
141.588
 20
17.1924
 30
0.0
 11
141.588
 21
13.9623
 31
0.0
  0
LINE
  8
0
 62
     0
 10
141.588
 20
13.9623
 30
0.0
 11
140.064
 21
13.9623
 31
0.0
  0
LINE
  8
0
 62
     0
 10
140.064
 20
13.9623
 30
0.0
 11
140.064
 21
18.6628
 31
0.0
  0
LINE
  8
0
 62
     0
 10
140.064
 20
18.6628
 30
0.0
 11
126.063
 21
18.6628
 31
0.0
  0
LINE
  8
0
 62
     0
 10
78.438
 20
18.6628
 30
0.0
 11
78.438
 21
13.9623
 31
0.0
  0
LINE
  8
0
 62
     0
 10
78.438
 20
13.9623
 30
0.0
 11
76.9137
 21
13.9623
 31
0.0
  0
LINE
  8
0
 62
     0
 10
76.9137
 20
13.9623
 30
0.0
 11
76.9137
 21
17.1924
 31
0.0
  0
LINE
  8
0
 62
     0
 10
76.9137
 20
17.1924
 30
0.0
 11
75.1886
 21
17.1924
 31
0.0
  0
LINE
  8
0
 62
     0
 10
75.1886
 20
17.1924
 30
0.0
 11
75.1886
 21
18.113
 31
0.0
  0
LINE
  8
0
 62
     0
 10
75.1886
 20
18.113
 30
0.0
 11
71.888
 21
18.113
 31
0.0
  0
LINE
  8
0
 62
     0
 10
71.888
 20
18.113
 30
0.0
 11
71.888
 21
17.1924
 31
0.0
  0
LINE
  8
0
 62
     0
 10
71.888
 20
17.1924
 30
0.0
 11
70.1629
 21
17.1924
 31
0.0
  0
LINE
  8
0
 62
     0
 10
70.1629
 20
17.1924
 30
0.0
 11
70.1629
 21
13.9623
 31
0.0
  0
LINE
  8
0
 62
     0
 10
70.1629
 20
13.9623
 30
0.0
 11
69.3388
 21
13.9623
 31
0.0
  0
LINE
  8
0
 62
     0
 10
69.3388
 20
13.9623
 30
0.0
 11
69.3388
 21
11.1635
 31
0.0
  0
LINE
  8
0
 62
     0
 10
69.3388
 20
11.1635
 30
0.0
 11
70.1629
 21
11.1635
 31
0.0
  0
LINE
  8
0
 62
     0
 10
70.1629
 20
11.1635
 30
0.0
 11
70.1629
 21
4.89342
 31
0.0
  0
LINE
  8
0
 62
     0
 10
70.1629
 20
4.89342
 30
0.0
 11
71.888
 21
4.89342
 31
0.0
  0
LINE
  8
0
 62
     0
 10
71.888
 20
4.89342
 30
0.0
 11
71.888
 21
3.91223
 31
0.0
  0
LINE
  8
0
 62
     0
 10
71.888
 20
3.91223
 30
0.0
 11
75.1886
 21
3.91223
 31
0.0
  0
LINE
  8
0
 62
     0
 10
75.1886
 20
3.91223
 30
0.0
 11
75.1886
 21
4.89342
 31
0.0
  0
LINE
  8
0
 62
     0
 10
75.1886
 20
4.89342
 30
0.0
 11
76.9137
 21
4.89342
 31
0.0
  0
LINE
  8
0
 62
     0
 10
76.9137
 20
4.89342
 30
0.0
 11
76.9137
 21
9.3624
 31
0.0
  0
LINE
  8
0
 62
     0
 10
76.9137
 20
9.3624
 30
0.0
 11
78.438
 21
9.3624
 31
0.0
  0
LINE
  8
0
 62
     0
 10
78.438
 20
9.3624
 30
0.0
 11
78.438
 21
4.6633
 31
0.0
  0
LINE
  8
0
 62
     0
 10
78.438
 20
4.6633
 30
0.0
 11
92.4387
 21
4.6633
 31
0.0
  0
LINE
  8
0
 62
     0
 10
92.4387
 20
4.6633
 30
0.0
 11
92.4387
 21
9.3624
 31
0.0
  0
LINE
  8
0
 62
     0
 10
92.4387
 20
9.3624
 30
0.0
 11
93.9631
 21
9.3624
 31
0.0
  0
LINE
  8
0
 62
     0
 10
93.9631
 20
9.3624
 30
0.0
 11
93.9631
 21
4.89342
 31
0.0
  0
LINE
  8
0
 62
     0
 10
93.9631
 20
4.89342
 30
0.0
 11
95.6882
 21
4.89342
 31
0.0
  0
LINE
  8
0
 62
     0
 10
95.6882
 20
4.89342
 30
0.0
 11
95.6882
 21
3.91223
 31
0.0
  0
LINE
  8
0
 62
     0
 10
95.6882
 20
3.91223
 30
0.0
 11
98.9887
 21
3.91223
 31
0.0
  0
LINE
  8
0
 62
     0
 10
98.9887
 20
3.91223
 30
0.0
 11
98.9887
 21
4.89342
 31
0.0
  0
LINE
  8
0
 62
     0
 10
98.9887
 20
4.89342
 30
0.0
 11
100.714
 21
4.89342
 31
0.0
  0
LINE
  8
0
 62
     0
 10
100.714
 20
4.89342
 30
0.0
 11
100.714
 21
11.1635
 31
0.0
  0
LINE
  8
0
 62
     0
 10
100.714
 20
11.1635
 30
0.0
 11
101.538
 21
11.1635
 31
0.0
  0
LINE
  8
0
 62
     0
 10
101.538
 20
11.1635
 30
0.0
 11
101.538
 21
13.9623
 31
0.0
  0
LINE
  8
0
 62
     0
 10
101.538
 20
13.9623
 30
0.0
 11
100.714
 21
13.9623
 31
0.0
  0
LINE
  8
0
 62
     0
 10
100.714
 20
13.9623
 30
0.0
 11
100.714
 21
17.1924
 31
0.0
  0
LINE
  8
0
 62
     0
 10
100.714
 20
17.1924
 30
0.0
 11
98.9887
 21
17.1924
 31
0.0
  0
LINE
  8
0
 62
     0
 10
98.9887
 20
17.1924
 30
0.0
 11
98.9887
 21
18.113
 31
0.0
  0
LINE
  8
0
 62
     0
 10
98.9887
 20
18.113
 30
0.0
 11
95.6882
 21
18.113
 31
0.0
  0
LINE
  8
0
 62
     0
 10
95.6882
 20
18.113
 30
0.0
 11
95.6882
 21
17.1924
 31
0.0
  0
LINE
  8
0
 62
     0
 10
95.6882
 20
17.1924
 30
0.0
 11
93.9631
 21
17.1924
 31
0.0
  0
LINE
  8
0
 62
     0
 10
93.9631
 20
17.1924
 30
0.0
 11
93.9631
 21
13.9623
 31
0.0
  0
LINE
  8
0
 62
     0
 10
93.9631
 20
13.9623
 30
0.0
 11
92.4387
 21
13.9623
 31
0.0
  0
LINE
  8
0
 62
     0
 10
92.4387
 20
13.9623
 30
0.0
 11
92.4387
 21
18.6628
 31
0.0
  0
LINE
  8
0
 62
     0
 10
92.4387
 20
18.6628
 30
0.0
 11
78.438
 21
18.6628
 31
0.0
  0
LINE
  8
0
 62
     0
 10
214.171
 20
18.6628
 30
0.0
 11
228.17
 21
18.6628
 31
0.0
  0
LINE
  8
0
 62
     0
 10
228.17
 20
18.6628
 30
0.0
 11
228.17
 21
4.6633
 31
0.0
  0
LINE
  8
0
 62
     0
 10
228.17
 20
4.6633
 30
0.0
 11
214.171
 21
4.6633
 31
0.0
  0
LINE
  8
0
 62
     0
 10
214.171
 20
4.6633
 30
0.0
 11
214.171
 21
18.6628
 31
0.0
  0
LINE
  8
0
 62
     0
 10
195.121
 20
18.6628
 30
0.0
 11
209.12
 21
18.6628
 31
0.0
  0
LINE
  8
0
 62
     0
 10
209.12
 20
18.6628
 30
0.0
 11
209.12
 21
4.6633
 31
0.0
  0
LINE
  8
0
 62
     0
 10
209.12
 20
4.6633
 30
0.0
 11
195.121
 21
4.6633
 31
0.0
  0
LINE
  8
0
 62
     0
 10
195.121
 20
4.6633
 30
0.0
 11
195.121
 21
18.6628
 31
0.0
  0
LINE
  8
0
 62
     0
 10
176.071
 20
18.6628
 30
0.0
 11
190.07
 21
18.6628
 31
0.0
  0
LINE
  8
0
 62
     0
 10
190.07
 20
18.6628
 30
0.0
 11
190.07
 21
4.6633
 31
0.0
  0
LINE
  8
0
 62
     0
 10
190.07
 20
4.6633
 30
0.0
 11
176.071
 21
4.6633
 31
0.0
  0
LINE
  8
0
 62
     0
 10
176.071
 20
4.6633
 30
0.0
 11
176.071
 21
18.6628
 31
0.0
  0
LINE
  8
0
 62
     0
 10
157.021
 20
18.6628
 30
0.0
 11
171.02
 21
18.6628
 31
0.0
  0
LINE
  8
0
 62
     0
 10
171.02
 20
18.6628
 30
0.0
 11
171.02
 21
4.6633
 31
0.0
  0
LINE
  8
0
 62
     0
 10
171.02
 20
4.6633
 30
0.0
 11
157.021
 21
4.6633
 31
0.0
  0
LINE
  8
0
 62
     0
 10
157.021
 20
4.6633
 30
0.0
 11
157.021
 21
18.6628
 31
0.0
  0
LINE
  8
0
 62
     0
 10
42.7207
 20
18.6628
 30
0.0
 11
56.72
 21
18.6628
 31
0.0
  0
LINE
  8
0
 62
     0
 10
56.72
 20
18.6628
 30
0.0
 11
56.72
 21
4.6633
 31
0.0
  0
LINE
  8
0
 62
     0
 10
56.72
 20
4.6633
 30
0.0
 11
42.7207
 21
4.6633
 31
0.0
  0
LINE
  8
0
 62
     0
 10
42.7207
 20
4.6633
 30
0.0
 11
42.7207
 21
18.6628
 31
0.0
  0
LINE
  8
0
 62
     0
 10
23.6706
 20
18.6628
 30
0.0
 11
37.67
 21
18.6628
 31
0.0
  0
LINE
  8
0
 62
     0
 10
37.67
 20
18.6628
 30
0.0
 11
37.67
 21
4.6633
 31
0.0
  0
LINE
  8
0
 62
     0
 10
37.67
 20
4.6633
 30
0.0
 11
23.6706
 21
4.6633
 31
0.0
  0
LINE
  8
0
 62
     0
 10
23.6706
 20
4.6633
 30
0.0
 11
23.6706
 21
18.6628
 31
0.0
  0
LINE
  8
0
 62
     0
 10
4.6192
 20
18.6628
 30
0.0
 11
18.6201
 21
18.6628
 31
0.0
  0
LINE
  8
0
 62
     0
 10
18.6201
 20
18.6628
 30
0.0
 11
18.6201
 21
4.6633
 31
0.0
  0
LINE
  8
0
 62
     0
 10
18.6201
 20
4.6633
 30
0.0
 11
4.6192
 21
4.6633
 31
0.0
  0
LINE
  8
0
 62
     0
 10
4.6192
 20
4.6633
 30
0.0
 11
4.6192
 21
18.6628
 31
0.0
  0
LINE
  8
0
 62
     0
 10
14.1456
 20
37.7127
 30
0.0
 11
14.1456
 21
33.0123
 31
0.0
  0
LINE
  8
0
 62
     0
 10
14.1456
 20
33.0123
 30
0.0
 11
12.6201
 21
33.0123
 31
0.0
  0
LINE
  8
0
 62
     0
 10
12.6201
 20
33.0123
 30
0.0
 11
12.6201
 21
36.2423
 31
0.0
  0
LINE
  8
0
 62
     0
 10
12.6201
 20
36.2423
 30
0.0
 11
10.8961
 21
36.2423
 31
0.0
  0
LINE
  8
0
 62
     0
 10
10.8961
 20
36.2423
 30
0.0
 11
10.8961
 21
37.163
 31
0.0
  0
LINE
  8
0
 62
     0
 10
10.8961
 20
37.163
 30
0.0
 11
7.59576
 21
37.163
 31
0.0
  0
LINE
  8
0
 62
     0
 10
7.59576
 20
37.163
 30
0.0
 11
7.59576
 21
36.2423
 31
0.0
  0
LINE
  8
0
 62
     0
 10
7.59576
 20
36.2423
 30
0.0
 11
5.87043
 21
36.2423
 31
0.0
  0
LINE
  8
0
 62
     0
 10
5.87043
 20
36.2423
 30
0.0
 11
5.87043
 21
33.0123
 31
0.0
  0
LINE
  8
0
 62
     0
 10
5.87043
 20
33.0123
 30
0.0
 11
5.045
 21
33.0123
 31
0.0
  0
LINE
  8
0
 62
     0
 10
5.045
 20
33.0123
 30
0.0
 11
5.045
 21
30.2135
 31
0.0
  0
LINE
  8
0
 62
     0
 10
5.045
 20
30.2135
 30
0.0
 11
5.87043
 21
30.2135
 31
0.0
  0
LINE
  8
0
 62
     0
 10
5.87043
 20
30.2135
 30
0.0
 11
5.87043
 21
23.9434
 31
0.0
  0
LINE
  8
0
 62
     0
 10
5.87043
 20
23.9434
 30
0.0
 11
7.59576
 21
23.9434
 31
0.0
  0
LINE
  8
0
 62
     0
 10
7.59576
 20
23.9434
 30
0.0
 11
7.59576
 21
22.9622
 31
0.0
  0
LINE
  8
0
 62
     0
 10
7.59576
 20
22.9622
 30
0.0
 11
10.8961
 21
22.9622
 31
0.0
  0
LINE
  8
0
 62
     0
 10
10.8961
 20
22.9622
 30
0.0
 11
10.8961
 21
23.9434
 31
0.0
  0
LINE
  8
0
 62
     0
 10
10.8961
 20
23.9434
 30
0.0
 11
12.6201
 21
23.9434
 31
0.0
  0
LINE
  8
0
 62
     0
 10
12.6201
 20
23.9434
 30
0.0
 11
12.6201
 21
28.4124
 31
0.0
  0
LINE
  8
0
 62
     0
 10
12.6201
 20
28.4124
 30
0.0
 11
14.1456
 21
28.4124
 31
0.0
  0
LINE
  8
0
 62
     0
 10
14.1456
 20
28.4124
 30
0.0
 11
14.1456
 21
23.7133
 31
0.0
  0
LINE
  8
0
 62
     0
 10
14.1456
 20
23.7133
 30
0.0
 11
28.1451
 21
23.7133
 31
0.0
  0
LINE
  8
0
 62
     0
 10
28.1451
 20
23.7133
 30
0.0
 11
28.1451
 21
28.4124
 31
0.0
  0
LINE
  8
0
 62
     0
 10
28.1451
 20
28.4124
 30
0.0
 11
29.6706
 21
28.4124
 31
0.0
  0
LINE
  8
0
 62
     0
 10
29.6706
 20
28.4124
 30
0.0
 11
29.6706
 21
23.9434
 31
0.0
  0
LINE
  8
0
 62
     0
 10
29.6706
 20
23.9434
 30
0.0
 11
31.3958
 21
23.9434
 31
0.0
  0
LINE
  8
0
 62
     0
 10
31.3958
 20
23.9434
 30
0.0
 11
31.3958
 21
22.9622
 31
0.0
  0
LINE
  8
0
 62
     0
 10
31.3958
 20
22.9622
 30
0.0
 11
34.6949
 21
22.9622
 31
0.0
  0
LINE
  8
0
 62
     0
 10
34.6949
 20
22.9622
 30
0.0
 11
34.6949
 21
23.9434
 31
0.0
  0
LINE
  8
0
 62
     0
 10
34.6949
 20
23.9434
 30
0.0
 11
36.4201
 21
23.9434
 31
0.0
  0
LINE
  8
0
 62
     0
 10
36.4201
 20
23.9434
 30
0.0
 11
36.4201
 21
30.2135
 31
0.0
  0
LINE
  8
0
 62
     0
 10
36.4201
 20
30.2135
 30
0.0
 11
37.2456
 21
30.2135
 31
0.0
  0
LINE
  8
0
 62
     0
 10
37.2456
 20
30.2135
 30
0.0
 11
37.2456
 21
33.0123
 31
0.0
  0
LINE
  8
0
 62
     0
 10
37.2456
 20
33.0123
 30
0.0
 11
36.4201
 21
33.0123
 31
0.0
  0
LINE
  8
0
 62
     0
 10
36.4201
 20
33.0123
 30
0.0
 11
36.4201
 21
36.2423
 31
0.0
  0
LINE
  8
0
 62
     0
 10
36.4201
 20
36.2423
 30
0.0
 11
34.6949
 21
36.2423
 31
0.0
  0
LINE
  8
0
 62
     0
 10
34.6949
 20
36.2423
 30
0.0
 11
34.6949
 21
37.163
 31
0.0
  0
LINE
  8
0
 62
     0
 10
34.6949
 20
37.163
 30
0.0
 11
31.3958
 21
37.163
 31
0.0
  0
LINE
  8
0
 62
     0
 10
31.3958
 20
37.163
 30
0.0
 11
31.3958
 21
36.2423
 31
0.0
  0
LINE
  8
0
 62
     0
 10
31.3958
 20
36.2423
 30
0.0
 11
29.6706
 21
36.2423
 31
0.0
  0
LINE
  8
0
 62
     0
 10
29.6706
 20
36.2423
 30
0.0
 11
29.6706
 21
33.0123
 31
0.0
  0
LINE
  8
0
 62
     0
 10
29.6706
 20
33.0123
 30
0.0
 11
28.1451
 21
33.0123
 31
0.0
  0
LINE
  8
0
 62
     0
 10
28.1451
 20
33.0123
 30
0.0
 11
28.1451
 21
37.7127
 31
0.0
  0
LINE
  8
0
 62
     0
 10
28.1451
 20
37.7127
 30
0.0
 11
14.1456
 21
37.7127
 31
0.0
  0
LINE
  8
0
 62
     0
 10
214.171
 20
37.7127
 30
0.0
 11
228.17
 21
37.7127
 31
0.0
  0
LINE
  8
0
 62
     0
 10
228.17
 20
37.7127
 30
0.0
 11
228.17
 21
23.7133
 31
0.0
  0
LINE
  8
0
 62
     0
 10
228.17
 20
23.7133
 30
0.0
 11
214.171
 21
23.7133
 31
0.0
  0
LINE
  8
0
 62
     0
 10
214.171
 20
23.7133
 30
0.0
 11
214.171
 21
37.7127
 31
0.0
  0
LINE
  8
0
 62
     0
 10
195.121
 20
37.7127
 30
0.0
 11
209.12
 21
37.7127
 31
0.0
  0
LINE
  8
0
 62
     0
 10
209.12
 20
37.7127
 30
0.0
 11
209.12
 21
23.7133
 31
0.0
  0
LINE
  8
0
 62
     0
 10
209.12
 20
23.7133
 30
0.0
 11
195.121
 21
23.7133
 31
0.0
  0
LINE
  8
0
 62
     0
 10
195.121
 20
23.7133
 30
0.0
 11
195.121
 21
37.7127
 31
0.0
  0
LINE
  8
0
 62
     0
 10
176.071
 20
37.7127
 30
0.0
 11
190.07
 21
37.7127
 31
0.0
  0
LINE
  8
0
 62
     0
 10
190.07
 20
37.7127
 30
0.0
 11
190.07
 21
23.7133
 31
0.0
  0
LINE
  8
0
 62
     0
 10
190.07
 20
23.7133
 30
0.0
 11
176.071
 21
23.7133
 31
0.0
  0
LINE
  8
0
 62
     0
 10
176.071
 20
23.7133
 30
0.0
 11
176.071
 21
37.7127
 31
0.0
  0
LINE
  8
0
 62
     0
 10
157.021
 20
37.7127
 30
0.0
 11
171.02
 21
37.7127
 31
0.0
  0
LINE
  8
0
 62
     0
 10
171.02
 20
37.7127
 30
0.0
 11
171.02
 21
23.7133
 31
0.0
  0
LINE
  8
0
 62
     0
 10
171.02
 20
23.7133
 30
0.0
 11
157.021
 21
23.7133
 31
0.0
  0
LINE
  8
0
 62
     0
 10
157.021
 20
23.7133
 30
0.0
 11
157.021
 21
37.7127
 31
0.0
  0
LINE
  8
0
 62
     0
 10
137.971
 20
37.7127
 30
0.0
 11
151.97
 21
37.7127
 31
0.0
  0
LINE
  8
0
 62
     0
 10
151.97
 20
37.7127
 30
0.0
 11
151.97
 21
23.7133
 31
0.0
  0
LINE
  8
0
 62
     0
 10
151.97
 20
23.7133
 30
0.0
 11
137.971
 21
23.7133
 31
0.0
  0
LINE
  8
0
 62
     0
 10
137.971
 20
23.7133
 30
0.0
 11
137.971
 21
37.7127
 31
0.0
  0
LINE
  8
0
 62
     0
 10
118.919
 20
37.7127
 30
0.0
 11
132.92
 21
37.7127
 31
0.0
  0
LINE
  8
0
 62
     0
 10
132.92
 20
37.7127
 30
0.0
 11
132.92
 21
23.7133
 31
0.0
  0
LINE
  8
0
 62
     0
 10
132.92
 20
23.7133
 30
0.0
 11
118.919
 21
23.7133
 31
0.0
  0
LINE
  8
0
 62
     0
 10
118.919
 20
23.7133
 30
0.0
 11
118.919
 21
37.7127
 31
0.0
  0
LINE
  8
0
 62
     0
 10
99.8693
 20
37.7127
 30
0.0
 11
113.87
 21
37.7127
 31
0.0
  0
LINE
  8
0
 62
     0
 10
113.87
 20
37.7127
 30
0.0
 11
113.87
 21
23.7133
 31
0.0
  0
LINE
  8
0
 62
     0
 10
113.87
 20
23.7133
 30
0.0
 11
99.8693
 21
23.7133
 31
0.0
  0
LINE
  8
0
 62
     0
 10
99.8693
 20
23.7133
 30
0.0
 11
99.8693
 21
37.7127
 31
0.0
  0
LINE
  8
0
 62
     0
 10
80.8207
 20
37.7127
 30
0.0
 11
94.82
 21
37.7127
 31
0.0
  0
LINE
  8
0
 62
     0
 10
94.82
 20
37.7127
 30
0.0
 11
94.82
 21
23.7133
 31
0.0
  0
LINE
  8
0
 62
     0
 10
94.82
 20
23.7133
 30
0.0
 11
80.8207
 21
23.7133
 31
0.0
  0
LINE
  8
0
 62
     0
 10
80.8207
 20
23.7133
 30
0.0
 11
80.8207
 21
37.7127
 31
0.0
  0
LINE
  8
0
 62
     0
 10
61.7707
 20
37.7127
 30
0.0
 11
75.77
 21
37.7127
 31
0.0
  0
LINE
  8
0
 62
     0
 10
75.77
 20
37.7127
 30
0.0
 11
75.77
 21
23.7133
 31
0.0
  0
LINE
  8
0
 62
     0
 10
75.77
 20
23.7133
 30
0.0
 11
61.7707
 21
23.7133
 31
0.0
  0
LINE
  8
0
 62
     0
 10
61.7707
 20
23.7133
 30
0.0
 11
61.7707
 21
37.7127
 31
0.0
  0
LINE
  8
0
 62
     0
 10
42.7207
 20
37.7127
 30
0.0
 11
56.72
 21
37.7127
 31
0.0
  0
LINE
  8
0
 62
     0
 10
56.72
 20
37.7127
 30
0.0
 11
56.72
 21
23.7133
 31
0.0
  0
LINE
  8
0
 62
     0
 10
56.72
 20
23.7133
 30
0.0
 11
42.7207
 21
23.7133
 31
0.0
  0
LINE
  8
0
 62
     0
 10
42.7207
 20
23.7133
 30
0.0
 11
42.7207
 21
37.7127
 31
0.0
  0
LINE
  8
0
 62
     0
 10
207.027
 20
56.7626
 30
0.0
 11
221.026
 21
56.7626
 31
0.0
  0
LINE
  8
0
 62
     0
 10
221.026
 20
56.7626
 30
0.0
 11
221.026
 21
42.7634
 31
0.0
  0
LINE
  8
0
 62
     0
 10
221.026
 20
42.7634
 30
0.0
 11
207.027
 21
42.7634
 31
0.0
  0
LINE
  8
0
 62
     0
 10
207.027
 20
42.7634
 30
0.0
 11
207.027
 21
56.7626
 31
0.0
  0
LINE
  8
0
 62
     0
 10
180.833
 20
56.7626
 30
0.0
 11
194.832
 21
56.7626
 31
0.0
  0
LINE
  8
0
 62
     0
 10
194.832
 20
56.7626
 30
0.0
 11
194.832
 21
42.7634
 31
0.0
  0
LINE
  8
0
 62
     0
 10
194.832
 20
42.7634
 30
0.0
 11
180.833
 21
42.7634
 31
0.0
  0
LINE
  8
0
 62
     0
 10
180.833
 20
42.7634
 30
0.0
 11
180.833
 21
56.7626
 31
0.0
  0
LINE
  8
0
 62
     0
 10
161.783
 20
56.7626
 30
0.0
 11
175.782
 21
56.7626
 31
0.0
  0
LINE
  8
0
 62
     0
 10
175.782
 20
56.7626
 30
0.0
 11
175.782
 21
42.7634
 31
0.0
  0
LINE
  8
0
 62
     0
 10
175.782
 20
42.7634
 30
0.0
 11
161.783
 21
42.7634
 31
0.0
  0
LINE
  8
0
 62
     0
 10
161.783
 20
42.7634
 30
0.0
 11
161.783
 21
56.7626
 31
0.0
  0
LINE
  8
0
 62
     0
 10
142.733
 20
56.7626
 30
0.0
 11
156.732
 21
56.7626
 31
0.0
  0
LINE
  8
0
 62
     0
 10
156.732
 20
56.7626
 30
0.0
 11
156.732
 21
42.7634
 31
0.0
  0
LINE
  8
0
 62
     0
 10
156.732
 20
42.7634
 30
0.0
 11
142.733
 21
42.7634
 31
0.0
  0
LINE
  8
0
 62
     0
 10
142.733
 20
42.7634
 30
0.0
 11
142.733
 21
56.7626
 31
0.0
  0
LINE
  8
0
 62
     0
 10
123.682
 20
56.7626
 30
0.0
 11
137.682
 21
56.7626
 31
0.0
  0
LINE
  8
0
 62
     0
 10
137.682
 20
56.7626
 30
0.0
 11
137.682
 21
42.7634
 31
0.0
  0
LINE
  8
0
 62
     0
 10
137.682
 20
42.7634
 30
0.0
 11
123.682
 21
42.7634
 31
0.0
  0
LINE
  8
0
 62
     0
 10
123.682
 20
42.7634
 30
0.0
 11
123.682
 21
56.7626
 31
0.0
  0
LINE
  8
0
 62
     0
 10
104.633
 20
56.7626
 30
0.0
 11
118.632
 21
56.7626
 31
0.0
  0
LINE
  8
0
 62
     0
 10
118.632
 20
56.7626
 30
0.0
 11
118.632
 21
42.7634
 31
0.0
  0
LINE
  8
0
 62
     0
 10
118.632
 20
42.7634
 30
0.0
 11
104.633
 21
42.7634
 31
0.0
  0
LINE
  8
0
 62
     0
 10
104.633
 20
42.7634
 30
0.0
 11
104.633
 21
56.7626
 31
0.0
  0
LINE
  8
0
 62
     0
 10
85.5832
 20
56.7626
 30
0.0
 11
99.5825
 21
56.7626
 31
0.0
  0
LINE
  8
0
 62
     0
 10
99.5825
 20
56.7626
 30
0.0
 11
99.5825
 21
42.7634
 31
0.0
  0
LINE
  8
0
 62
     0
 10
99.5825
 20
42.7634
 30
0.0
 11
85.5832
 21
42.7634
 31
0.0
  0
LINE
  8
0
 62
     0
 10
85.5832
 20
42.7634
 30
0.0
 11
85.5832
 21
56.7626
 31
0.0
  0
LINE
  8
0
 62
     0
 10
66.5332
 20
56.7626
 30
0.0
 11
80.5325
 21
56.7626
 31
0.0
  0
LINE
  8
0
 62
     0
 10
80.5325
 20
56.7626
 30
0.0
 11
80.5325
 21
42.7634
 31
0.0
  0
LINE
  8
0
 62
     0
 10
80.5325
 20
42.7634
 30
0.0
 11
66.5332
 21
42.7634
 31
0.0
  0
LINE
  8
0
 62
     0
 10
66.5332
 20
42.7634
 30
0.0
 11
66.5332
 21
56.7626
 31
0.0
  0
LINE
  8
0
 62
     0
 10
47.4832
 20
56.7626
 30
0.0
 11
61.4825
 21
56.7626
 31
0.0
  0
LINE
  8
0
 62
     0
 10
61.4825
 20
56.7626
 30
0.0
 11
61.4825
 21
42.7634
 31
0.0
  0
LINE
  8
0
 62
     0
 10
61.4825
 20
42.7634
 30
0.0
 11
47.4832
 21
42.7634
 31
0.0
  0
LINE
  8
0
 62
     0
 10
47.4832
 20
42.7634
 30
0.0
 11
47.4832
 21
56.7626
 31
0.0
  0
LINE
  8
0
 62
     0
 10
28.4331
 20
56.7626
 30
0.0
 11
42.4325
 21
56.7626
 31
0.0
  0
LINE
  8
0
 62
     0
 10
42.4325
 20
56.7626
 30
0.0
 11
42.4325
 21
42.7634
 31
0.0
  0
LINE
  8
0
 62
     0
 10
42.4325
 20
42.7634
 30
0.0
 11
28.4331
 21
42.7634
 31
0.0
  0
LINE
  8
0
 62
     0
 10
28.4331
 20
42.7634
 30
0.0
 11
28.4331
 21
56.7626
 31
0.0
  0
LINE
  8
0
 62
     0
 10
7.00183
 20
56.7626
 30
0.0
 11
21.0013
 21
56.7626
 31
0.0
  0
LINE
  8
0
 62
     0
 10
21.0013
 20
56.7626
 30
0.0
 11
21.0013
 21
42.7634
 31
0.0
  0
LINE
  8
0
 62
     0
 10
21.0013
 20
42.7634
 30
0.0
 11
7.00183
 21
42.7634
 31
0.0
  0
LINE
  8
0
 62
     0
 10
7.00183
 20
42.7634
 30
0.0
 11
7.00183
 21
56.7626
 31
0.0
  0
LINE
  8
0
 62
     0
 10
214.171
 20
75.8141
 30
0.0
 11
228.17
 21
75.8141
 31
0.0
  0
LINE
  8
0
 62
     0
 10
228.17
 20
75.8141
 30
0.0
 11
228.17
 21
61.8134
 31
0.0
  0
LINE
  8
0
 62
     0
 10
228.17
 20
61.8134
 30
0.0
 11
214.171
 21
61.8134
 31
0.0
  0
LINE
  8
0
 62
     0
 10
214.171
 20
61.8134
 30
0.0
 11
214.171
 21
75.8141
 31
0.0
  0
LINE
  8
0
 62
     0
 10
195.121
 20
75.8141
 30
0.0
 11
209.12
 21
75.8141
 31
0.0
  0
LINE
  8
0
 62
     0
 10
209.12
 20
75.8141
 30
0.0
 11
209.12
 21
61.8134
 31
0.0
  0
LINE
  8
0
 62
     0
 10
209.12
 20
61.8134
 30
0.0
 11
195.121
 21
61.8134
 31
0.0
  0
LINE
  8
0
 62
     0
 10
195.121
 20
61.8134
 30
0.0
 11
195.121
 21
75.8141
 31
0.0
  0
LINE
  8
0
 62
     0
 10
176.071
 20
75.8141
 30
0.0
 11
190.07
 21
75.8141
 31
0.0
  0
LINE
  8
0
 62
     0
 10
190.07
 20
75.8141
 30
0.0
 11
190.07
 21
61.8134
 31
0.0
  0
LINE
  8
0
 62
     0
 10
190.07
 20
61.8134
 30
0.0
 11
176.071
 21
61.8134
 31
0.0
  0
LINE
  8
0
 62
     0
 10
176.071
 20
61.8134
 30
0.0
 11
176.071
 21
75.8141
 31
0.0
  0
LINE
  8
0
 62
     0
 10
157.021
 20
75.8141
 30
0.0
 11
171.02
 21
75.8141
 31
0.0
  0
LINE
  8
0
 62
     0
 10
171.02
 20
75.8141
 30
0.0
 11
171.02
 21
61.8134
 31
0.0
  0
LINE
  8
0
 62
     0
 10
171.02
 20
61.8134
 30
0.0
 11
157.021
 21
61.8134
 31
0.0
  0
LINE
  8
0
 62
     0
 10
157.021
 20
61.8134
 30
0.0
 11
157.021
 21
75.8141
 31
0.0
  0
LINE
  8
0
 62
     0
 10
137.971
 20
75.8141
 30
0.0
 11
151.97
 21
75.8141
 31
0.0
  0
LINE
  8
0
 62
     0
 10
151.97
 20
75.8141
 30
0.0
 11
151.97
 21
61.8134
 31
0.0
  0
LINE
  8
0
 62
     0
 10
151.97
 20
61.8134
 30
0.0
 11
137.971
 21
61.8134
 31
0.0
  0
LINE
  8
0
 62
     0
 10
137.971
 20
61.8134
 30
0.0
 11
137.971
 21
75.8141
 31
0.0
  0
LINE
  8
0
 62
     0
 10
118.919
 20
75.8141
 30
0.0
 11
132.92
 21
75.8141
 31
0.0
  0
LINE
  8
0
 62
     0
 10
132.92
 20
75.8141
 30
0.0
 11
132.92
 21
61.8134
 31
0.0
  0
LINE
  8
0
 62
     0
 10
132.92
 20
61.8134
 30
0.0
 11
118.919
 21
61.8134
 31
0.0
  0
LINE
  8
0
 62
     0
 10
118.919
 20
61.8134
 30
0.0
 11
118.919
 21
75.8141
 31
0.0
  0
LINE
  8
0
 62
     0
 10
99.8693
 20
75.8141
 30
0.0
 11
113.87
 21
75.8141
 31
0.0
  0
LINE
  8
0
 62
     0
 10
113.87
 20
75.8141
 30
0.0
 11
113.87
 21
61.8134
 31
0.0
  0
LINE
  8
0
 62
     0
 10
113.87
 20
61.8134
 30
0.0
 11
99.8693
 21
61.8134
 31
0.0
  0
LINE
  8
0
 62
     0
 10
99.8693
 20
61.8134
 30
0.0
 11
99.8693
 21
75.8141
 31
0.0
  0
LINE
  8
0
 62
     0
 10
80.8207
 20
75.8141
 30
0.0
 11
94.82
 21
75.8141
 31
0.0
  0
LINE
  8
0
 62
     0
 10
94.82
 20
75.8141
 30
0.0
 11
94.82
 21
61.8134
 31
0.0
  0
LINE
  8
0
 62
     0
 10
94.82
 20
61.8134
 30
0.0
 11
80.8207
 21
61.8134
 31
0.0
  0
LINE
  8
0
 62
     0
 10
80.8207
 20
61.8134
 30
0.0
 11
80.8207
 21
75.8141
 31
0.0
  0
LINE
  8
0
 62
     0
 10
61.7707
 20
75.8141
 30
0.0
 11
75.77
 21
75.8141
 31
0.0
  0
LINE
  8
0
 62
     0
 10
75.77
 20
75.8141
 30
0.0
 11
75.77
 21
61.8134
 31
0.0
  0
LINE
  8
0
 62
     0
 10
75.77
 20
61.8134
 30
0.0
 11
61.7707
 21
61.8134
 31
0.0
  0
LINE
  8
0
 62
     0
 10
61.7707
 20
61.8134
 30
0.0
 11
61.7707
 21
75.8141
 31
0.0
  0
LINE
  8
0
 62
     0
 10
42.7207
 20
75.8141
 30
0.0
 11
56.72
 21
75.8141
 31
0.0
  0
LINE
  8
0
 62
     0
 10
56.72
 20
75.8141
 30
0.0
 11
56.72
 21
61.8134
 31
0.0
  0
LINE
  8
0
 62
     0
 10
56.72
 20
61.8134
 30
0.0
 11
42.7207
 21
61.8134
 31
0.0
  0
LINE
  8
0
 62
     0
 10
42.7207
 20
61.8134
 30
0.0
 11
42.7207
 21
75.8141
 31
0.0
  0
LINE
  8
0
 62
     0
 10
23.6706
 20
75.8141
 30
0.0
 11
37.67
 21
75.8141
 31
0.0
  0
LINE
  8
0
 62
     0
 10
37.67
 20
75.8141
 30
0.0
 11
37.67
 21
61.8134
 31
0.0
  0
LINE
  8
0
 62
     0
 10
37.67
 20
61.8134
 30
0.0
 11
23.6706
 21
61.8134
 31
0.0
  0
LINE
  8
0
 62
     0
 10
23.6706
 20
61.8134
 30
0.0
 11
23.6706
 21
75.8141
 31
0.0
  0
LINE
  8
0
 62
     0
 10
4.6192
 20
75.8141
 30
0.0
 11
18.6201
 21
75.8141
 31
0.0
  0
LINE
  8
0
 62
     0
 10
18.6201
 20
75.8141
 30
0.0
 11
18.6201
 21
61.8134
 31
0.0
  0
LINE
  8
0
 62
     0
 10
18.6201
 20
61.8134
 30
0.0
 11
4.6192
 21
61.8134
 31
0.0
  0
LINE
  8
0
 62
     0
 10
4.6192
 20
61.8134
 30
0.0
 11
4.6192
 21
75.8141
 31
0.0
  0
ENDSEC
  0
EOF
